# Blender 4.2.3 LTS
# www.blender.org
o 路线
v 95.283661 7.950100 -28.298635
v 101.869385 7.981092 -19.733261
v 105.399940 8.106040 -18.721354
v 102.220261 8.053975 -16.882111
v 102.198845 7.761204 -12.125700
v 103.928719 7.749181 -11.388286
v 104.116051 8.063475 -5.473351
v 102.595222 7.747849 -5.324968
v 102.687691 5.435895 -5.304990
v 102.981392 5.293427 -7.684916
v 99.017853 5.450396 -7.161973
v 96.845360 8.356595 -6.421432
v 98.451080 8.015445 -11.366675
v 99.225433 7.888636 -12.154398
v 99.999786 7.874790 -12.004519
v 100.036011 7.267390 -10.775248
v 100.017326 6.299903 -9.921135
v 99.986382 4.501297 -8.299452
v 96.337616 4.428935 -6.120224
v 95.611588 4.435884 -3.619237
v 95.107079 4.693654 -1.605849
v 71.744507 5.379526 -1.306412
v 68.659882 5.106650 3.645586
v 77.184822 5.765676 13.745378
v 94.966850 8.231712 25.054218
v 97.718483 13.546941 20.842545
v 98.438278 13.504334 20.990028
v 98.652695 13.475392 20.944563
v 100.138901 13.481377 20.958677
v 101.485329 13.487884 21.424927
v 102.017723 7.407732 21.901793
v 103.313789 7.407732 21.781673
v 103.267487 7.697116 10.996570
v 101.392654 7.660660 10.169806
v 100.888306 12.292233 10.501726
v 100.287094 12.339029 10.890836
v 98.421989 12.362429 10.201637
v 97.435738 7.678084 9.848175
v 96.464668 7.700947 9.874828
v 96.434868 7.697116 13.419781
v 62.975189 5.154266 20.634033
v 29.998688 5.199300 20.790833
v 27.272552 6.163527 5.488616
v 24.442816 6.131747 0.605020
v 17.841461 6.209914 0.546574
v 13.046857 1.128781 0.547263
v 12.480686 1.057054 1.619522
v 12.965577 1.094626 2.805345
v 23.699173 1.643730 2.483948
v 34.432766 3.761497 2.574844
v 38.055264 4.658726 2.170133
v 38.046692 4.578516 -0.519374
v 39.623512 5.184186 -1.857117
v 39.792152 5.519501 -6.768387
v 39.830360 5.476295 -8.218614
v 40.216011 1.243185 -9.571967
v 39.328072 1.260878 -9.662543
v 39.651524 1.349854 -1.626730
v 37.783703 1.352442 -4.991757
v 36.152405 1.507912 -3.752289
v 33.194794 1.780661 -4.318817
v 33.739025 2.128606 -7.413112
v 34.436291 2.470986 -10.681978
v 15.481232 1.013862 -11.694943
v 11.211539 1.018932 -12.178882
v 11.563644 1.054078 -8.501282
v 12.715675 1.096567 -5.802836
v 8.798558 3.899698 -5.843184
v 6.900916 4.369225 -5.808856
v 5.046454 4.883231 -5.784094
v 5.055357 4.872582 -7.454082
v 7.922631 4.355330 -8.936727
v 7.922540 4.355192 -11.511425
v 6.926062 4.368439 -11.718573
v 3.837828 1.071847 -11.803339
v 3.964279 1.059918 -9.636666
v 6.592129 1.114321 -8.350352
v 6.592869 1.106413 -2.108160
v 3.647866 1.102457 -3.781486
v 3.351139 1.100479 -0.672936
v -2.232285 1.099490 -0.666316
v -1.976372 1.098502 -6.911180
v -19.006130 1.291651 -7.051841
v -20.809824 1.293074 -6.657664
v -28.608650 1.293786 -6.616009
v -28.613747 1.294142 -4.769045
v -31.272400 1.294498 -4.779365
v -31.276142 1.295206 -9.071262
v -29.285204 1.295561 -11.298013
v -29.300648 1.295740 -17.837494
v -29.305796 2.569148 -25.078588
v -28.030693 2.476505 -28.491108
v -30.826956 2.969168 -31.909807
v -32.483986 3.099009 -33.731899
v -40.332924 3.094963 -42.385780
v -45.254238 3.073702 -48.291870
v -47.479671 3.094825 -49.129417
v -49.952415 3.102584 -49.813770
v -57.873337 3.067245 -59.609680
v -58.691032 3.698771 -60.016800
v -59.657555 3.704901 -59.893970
v -62.837254 3.707970 -57.246571
v -68.048874 2.780572 -52.749031
v -68.830048 2.719090 -49.344269
v -76.106705 2.688354 -43.112076
l 1 2
l 2 3
l 3 4
l 4 5
l 5 6
l 6 7
l 7 8
l 8 9
l 9 10
l 10 11
l 11 12
l 12 13
l 13 14
l 14 15
l 15 16
l 16 17
l 17 18
l 18 19
l 19 20
l 20 21
l 21 22
l 22 23
l 23 24
l 24 25
l 25 26
l 26 27
l 27 28
l 28 29
l 29 30
l 30 31
l 31 32
l 32 33
l 33 34
l 34 35
l 35 36
l 36 37
l 37 38
l 38 39
l 39 40
l 40 41
l 41 42
l 42 43
l 43 44
l 44 45
l 45 46
l 46 47
l 47 48
l 48 49
l 49 50
l 50 51
l 51 52
l 52 53
l 53 54
l 54 55
l 55 56
l 56 57
l 57 58
l 58 59
l 59 60
l 60 61
l 61 62
l 62 63
l 63 64
l 64 65
l 65 66
l 66 67
l 67 68
l 68 69
l 69 70
l 70 71
l 71 72
l 72 73
l 73 74
l 74 75
l 75 76
l 76 77
l 77 78
l 78 79
l 79 80
l 80 81
l 81 82
l 82 83
l 83 84
l 84 85
l 85 86
l 86 87
l 87 88
l 88 89
l 89 90
l 90 91
l 91 92
l 92 93
l 93 94
l 94 95
l 95 96
l 96 97
l 97 98
l 98 99
l 99 100
l 100 101
l 101 102
l 102 103
l 103 104
l 104 105
